<svg id="Capa_1" data-name="Capa 1" xmlns="http://www.w3.org/2000/svg" width="100" height="100" viewBox="0 0 100 100">
  <defs>
    <style>
      .cls-1 {
        fill: #9b9b9b;
      }

      .cls-2 {
        fill: #fff;
      }
    </style>
  </defs>
  <rect class="cls-1" width="100" height="100" rx="4.96"/>
  <path class="cls-1" d="M49.85,96.63q-18.27,0-36.55,0c-6.86,0-9.58-2.74-9.59-9.51V13.69c0-6.14,3-9.19,9-9.19q37.44,0,74.88,0c5.43,0,8.47,3,8.48,8.48q.06,37.59,0,75.18c0,5.56-2.89,8.39-8.5,8.42-12.58,0-25.16,0-37.74,0Zm3.7-12.88V80.61c0-7.22,0-14.45,0-21.68,0-4.89,3-8.19,7.45-8.27s7.62,3.19,7.77,8c.12,3.76,0,7.52,0,11.28V83.59h13.5c0-10.6.24-21-.08-31.34C82,46,78.41,41.61,72.62,39.55c-6-2.14-11.7-1.24-16.5,3.31l-2.46,2.32c-.09-2-.17-3.54-.24-5.17H40.1V83.75ZM18.75,39.86V83.58H32.16V39.86Zm6.8-5.81A8,8,0,1,0,25.5,18a8,8,0,1,0,.05,16.09Z"/>
  <g>
    <path class="cls-2" d="M53.55,83.75H40.1V40H53.42c.07,1.63.15,3.17.24,5.17l2.46-2.32c4.8-4.55,10.51-5.45,16.5-3.31C78.41,41.61,82,46,82.23,52.25c.32,10.36.08,20.74.08,31.34H68.81V69.93c0-3.76.09-7.52,0-11.28-.15-4.8-3.43-8.08-7.77-8S53.58,54,53.56,58.93c0,7.23,0,14.46,0,21.68Z"/>
    <path class="cls-2" d="M18.75,39.86H32.16V83.58H18.75Z"/>
    <path class="cls-2" d="M25.55,34.05A8,8,0,1,1,25.5,18a8,8,0,1,1,.05,16.09Z"/>
  </g>
</svg>
