<svg id="Capa_1" data-name="Capa 1" xmlns="http://www.w3.org/2000/svg" width="100" height="100" viewBox="0 0 100 100">
  <defs>
    <style>
      .cls-1 {
        fill: #9b9b9b;
      }

      .cls-2 {
        fill: #fff;
      }
    </style>
  </defs>
  <rect class="cls-1" width="100" height="100" rx="4.96"/>
  <g>
    <path class="cls-2" d="M50,11.19H64.48a24.54,24.54,0,0,1,22.89,15.6,23.21,23.21,0,0,1,1.68,8.51c0,10,.06,20,0,30A24.44,24.44,0,0,1,68.67,89a29.58,29.58,0,0,1-4.41.36q-14.36,0-28.73,0a23.69,23.69,0,0,1-15.16-5.23A23.76,23.76,0,0,1,11,65.05c-.1-9.9-.06-19.79,0-29.68a24.51,24.51,0,0,1,20.87-23.9,26.3,26.3,0,0,1,3.76-.26C40.4,11.17,45.2,11.19,50,11.19Zm0,7.74c-4.85,0-9.7,0-14.55,0a16.79,16.79,0,0,0-16.78,16.8q0,14.6,0,29.17a16.83,16.83,0,0,0,17,16.73c9.55,0,19.1,0,28.66,0a16.81,16.81,0,0,0,17-17.08q0-14.16,0-28.3c0-.68,0-1.36-.09-2A16.76,16.76,0,0,0,64.48,18.93C59.65,18.94,54.83,18.93,50,18.93Z"/>
    <path class="cls-2" d="M30.38,50.26A19.62,19.62,0,1,1,49.93,69.93,19.62,19.62,0,0,1,30.38,50.26Zm7.72,0A11.91,11.91,0,1,0,50,38.35,11.93,11.93,0,0,0,38.1,50.28Z"/>
    <path class="cls-2" d="M70.85,25a4.45,4.45,0,1,1-4.45,4.43A4.45,4.45,0,0,1,70.85,25Z"/>
  </g>
</svg>
