<svg id="Capa_1" data-name="Capa 1" xmlns="http://www.w3.org/2000/svg" width="100" height="100" viewBox="0 0 100 100">
  <defs>
    <style>
      .cls-1 {
        fill: #9b9b9b;
      }

      .cls-2 {
        fill: #fff;
      }
    </style>
  </defs>
  <rect class="cls-1" width="100" height="100" rx="4.96"/>
  <g>
    <path class="cls-2" d="M18,70.55V29.68a6.68,6.68,0,0,1,1.26-.25c6.86.07,13.72.05,20.58.26,5.21.16,9.08,3,10.35,7.33,1.33,4.47-.25,8.42-4.82,11.79.39.23.72.44,1.07.62,4.91,2.47,7,6.55,6,11.89-.94,5-4.8,9-9.82,9.15C34.45,70.76,26.35,70.55,18,70.55Zm8.51-17.5V63.52c4.55,0,9,.15,13.39-.06,2.29-.1,3.55-1.8,3.93-4.05.59-3.45-1.5-6-5.52-6.31C34.44,52.85,30.57,53.05,26.48,53.05Zm0-7.15c2.57,0,5,.07,7.49,0a24.23,24.23,0,0,0,5.39-.55c2-.54,3-2.14,3-4.31s-.93-3.94-2.87-4.09c-4.29-.33-8.62-.1-13-.1Z"/>
    <path class="cls-2" d="M73.63,61.3l7.76,1.35c-1.69,4.85-4.88,7.74-9.72,8.66-9.84,1.86-16.74-3.18-17.75-13.12a23.4,23.4,0,0,1,.57-7.59c1.6-6.71,6.73-10.51,13.55-10.41s11.57,3.94,13.11,10.67A71,71,0,0,1,82,58.2H62.22c-.17,3.72,1.63,6.4,4.67,7.17S71.69,65.1,73.63,61.3Zm.06-8.11c.19-4.14-2.33-7-5.94-6.84-3.43.14-5.78,3.12-5.34,6.84Z"/>
    <path class="cls-2" d="M59.66,37.55V32.43H75.92v5.12Z"/>
  </g>
</svg>
